<svg xmlns="http://www.w3.org/2000/svg" version="1.1" xmlns:xlink="http://www.w3.org/1999/xlink" xmlns:svgjs="http://svgjs.dev/svgjs" width="196" height="247"><svg width="196" height="247" viewBox="0 0 196 247" fill="none" xmlns="http://www.w3.org/2000/svg">
<path d="M59 207.312C59 206.377 61.3112 205.886 77.686 203.329C95.6836 200.526 110.19 195.854 119.238 189.904C127.794 184.348 133.154 176.529 133.646 168.858C134.432 156.269 123.762 151.254 107.682 156.712C105.666 157.4 99.47 160.252 93.9133 163.055C88.3567 165.858 83.0951 168.317 82.2592 168.464C80.784 168.759 80.6364 168.661 80.6364 167.53C80.6364 164.481 90.5204 153.122 98.3882 147.172C103.158 143.533 109.108 140.288 113.976 138.616C118.402 137.141 119.189 137.042 125.139 137.042C132.613 137.092 136.252 137.878 144.759 141.419C152.774 144.714 154.79 145.254 156.216 144.32C157.298 143.632 157.298 143.435 156.659 142.206C156.266 141.468 153.315 138.37 150.021 135.321C146.775 132.273 142.645 127.847 140.874 125.487C135.072 117.865 130.351 106.702 129.909 99.7195C129.712 96.1298 129.761 95.884 130.695 95.884C132.564 95.884 133.252 96.4741 138.858 102.965C149.135 114.914 154.79 118.651 166.15 120.963C176.624 123.077 186.704 121.651 193.687 116.979L195.359 115.849L195.064 122.93C193.589 155.581 178.099 182.479 152.184 197.329C135.676 206.736 119.36 208 96.372 208C64.4583 208 59 207.902 59 207.312Z" fill="#D81928"></path>
<path d="M175.099 116.537C168.018 113.931 164.232 108.718 164.232 101.637C164.232 97.4575 165.363 94.4087 167.969 91.5075C171.755 87.2785 174.607 86 180.115 86C186.212 86 191.769 89.5897 194.375 95.2938C195.801 98.4901 195.85 104.538 194.375 107.784C191.031 115.16 182.18 119.192 175.099 116.537Z" fill="#D81928"></path>
<path d="M13.1528 220C6.00285 205.15 0.102844 192.45 0.00284377 191.85C-0.0971562 191.25 2.45285 179.7 5.65285 166.25C8.85285 152.75 12.7028 136.45 14.2528 130C15.7528 123.55 17.5028 116.1 18.1528 113.5L19.2529 108.75L32.9528 102.6C40.4528 99.25 46.9029 96.2 47.2528 95.85C47.5528 95.55 49.6528 89.4 51.9028 82.25C54.1528 75.1 58.1028 62.6 60.6528 54.5C69.8028 25.7 71.5528 20.15 74.4529 10.75C76.0528 5.55 77.4028 0.950002 77.4028 0.650002C77.4028 0.300002 77.5528 0 77.8028 0C78.0028 0 82.7528 7.55 88.3528 16.75C93.9528 25.95 98.8028 33.7 99.1028 33.95C99.4528 34.25 102.603 34.1 107.303 33.6C112.103 33.1 115.053 32.95 115.353 33.25C115.603 33.55 119.253 40.05 123.453 47.75C127.653 55.45 133.053 65.35 135.453 69.75C137.853 74.15 139.753 77.85 139.653 78C139.553 78.15 132.853 82.7 124.753 88.2L110.053 98.1L90.0528 133.7C79.0028 153.25 67.0528 174.55 63.4028 181C59.7528 187.45 55.4028 195.25 53.6528 198.25C51.9528 201.3 46.7528 210.5 42.1028 218.75C37.5028 227 32.8529 235.35 31.7529 237.25C30.6529 239.2 29.0028 242.15 28.0528 243.9C27.1028 245.6 26.2529 247 26.2529 247C26.2029 247 20.3028 234.85 13.1528 220Z" fill="black"></path>
</svg><style>@media (prefers-color-scheme: light) { :root { filter: none; } }
@media (prefers-color-scheme: dark) { :root { filter: none; } }
</style></svg>