<svg width="55" height="70" viewBox="0 0 55 70" fill="none" xmlns="http://www.w3.org/2000/svg">
<path d="M16.6016 58.4725C16.6016 58.209 17.2519 58.0703 21.8595 57.3491C26.9237 56.5585 31.0055 55.2409 33.5515 53.5627C35.959 51.9954 37.4672 49.7902 37.6056 47.6266C37.827 44.076 34.8244 42.6613 30.2999 44.2008C29.7326 44.395 27.9891 45.1994 26.4256 45.9899C24.8621 46.7805 23.3815 47.474 23.1463 47.5156C22.7312 47.5988 22.6897 47.5711 22.6897 47.2521C22.6897 46.3922 25.4709 43.1883 27.6847 41.5101C29.0269 40.4838 30.7011 39.5684 32.0709 39.0968C33.3162 38.6807 33.5376 38.653 35.2119 38.653C37.315 38.6668 38.3389 38.8888 40.7327 39.8874C42.9881 40.8166 43.5554 40.9692 43.9566 40.7057C44.261 40.5115 44.261 40.456 44.0811 40.1093C43.9704 39.9012 43.1403 39.0275 42.2132 38.1675C41.3 37.3076 40.1377 36.0594 39.6396 35.3936C38.0069 33.2439 36.6785 30.0955 36.554 28.126C36.4987 27.1135 36.5125 27.0442 36.7754 27.0442C37.3012 27.0442 37.4949 27.2106 39.0723 29.0414C41.9641 32.4117 43.5554 33.4658 46.7516 34.1176C49.6988 34.714 52.5353 34.3118 54.5001 32.9942L54.9706 32.6752L54.8876 34.6724C54.4725 43.8818 50.1139 51.4684 42.822 55.657C38.1767 58.31 33.5858 58.6667 27.1174 58.6667C18.1374 58.6667 16.6016 58.6389 16.6016 58.4725Z" fill="#D81928"/>
<path d="M49.2699 32.8694C47.2774 32.1343 46.212 30.6641 46.212 28.6669C46.212 27.488 46.5302 26.6281 47.2636 25.8098C48.329 24.617 49.1315 24.2564 50.6812 24.2564C52.397 24.2564 53.9605 25.2689 54.6938 26.8777C55.0951 27.7793 55.1089 29.4852 54.6938 30.4006C53.7529 32.481 51.2624 33.6183 49.2699 32.8694Z" fill="#D81928"/>
<path d="M3.70098 62.0513C1.6891 57.8628 0.0289385 54.2808 0.000800187 54.1115C-0.0273381 53.9423 0.690188 50.6846 1.59061 46.891C2.49104 43.0833 3.57436 38.4859 4.0105 36.6667C4.43258 34.8474 4.925 32.7462 5.1079 32.0128L5.41742 30.6731L9.27236 28.9385C11.3827 27.9936 13.1977 27.1333 13.2961 27.0346C13.3806 26.95 13.9715 25.2154 14.6046 23.1987C15.2377 21.182 16.3491 17.6564 17.0667 15.3718C19.6413 7.24872 20.1337 5.68333 20.9497 3.03205C21.4 1.56538 21.7798 0.267949 21.7798 0.183334C21.7798 0.0846158 21.822 0 21.8924 0C21.9487 0 23.2852 2.12949 24.861 4.72436C26.4367 7.31923 27.8014 9.50513 27.8858 9.57564C27.9843 9.66025 28.8707 9.61795 30.1932 9.47692C31.5438 9.3359 32.3739 9.29359 32.4583 9.3782C32.5286 9.46282 33.5557 11.2962 34.7375 13.4679C35.9193 15.6397 37.4388 18.4321 38.1141 19.6731C38.7894 20.9141 39.324 21.9577 39.2959 22C39.2678 22.0423 37.3825 23.3256 35.1033 24.8769L30.967 27.6692L25.3393 37.7103C22.23 43.2244 18.8675 49.232 17.8405 51.0513C16.8134 52.8705 15.5894 55.0705 15.097 55.9167C14.6186 56.7769 13.1554 59.3718 11.847 61.6987C10.5527 64.0256 9.24423 66.3808 8.9347 66.9167C8.62518 67.4667 8.1609 68.2987 7.89358 68.7923C7.62627 69.2718 7.3871 69.6667 7.3871 69.6667C7.37303 69.6667 5.71287 66.2397 3.70098 62.0513Z" fill="black"/>
<rect y="47.3333" width="55" height="4" fill="white"/>
<rect x="6" y="0.333252" width="5" height="69" fill="white"/>
</svg>
